# xmcd
#
# Track frame offsets:
#  150
#  15957
#  27955
#  42115
#  54137
#  67882
#  82972
#  98962
#  111190
#  123215
#  137257
#  151092
#
# Disc length: 2159 seconds
#
# Revision: 0
# Processed by: cddbd v1.4PL0 Copyright (c) Steve Scherf et al.
# Submitted via: AltoMP3_Maker 3.0
#
DISCID=7c086d0c
DTITLE=Frank Sinatra - Santa Claus Is Coming To Town
DYEAR=1900
DGENRE=
TTITLE0=White Christmas
TTITLE1=Jingle Bells
TTITLE2=O Little Town of Bethlehm
TTITLE3=Have Yourself a Merry Little Christmas
TTITLE4=Christmas Dreaming
TTITLE5=Silent Night, Holy Night
TTITLE6=It Come Upon The Midnight Clear
TTITLE7=O Come All Ye Faithfull
TTITLE8=Santa Claus Is Coming to Town
TTITLE9=White Christmas
TTITLE10=Silver Bells
TTITLE11=Adeste Fideles
EXTD=
EXTT0=
EXTT1=
EXTT2=
EXTT3=
EXTT4=
EXTT5=
EXTT6=
EXTT7=
EXTT8=
EXTT9=
EXTT10=
EXTT11=
PLAYORDER=
